<?xml version="1.0" encoding="utf-8"?>
<!-- Generator: Adobe Illustrator 24.0.1, SVG Export Plug-In . SVG Version: 6.00 Build 0)  -->
<svg version="1.1" xmlns="http://www.w3.org/2000/svg" xmlns:xlink="http://www.w3.org/1999/xlink" x="0px" y="0px"
	 viewBox="0 0 381.05 381.05" style="enable-background:new 0 0 381.05 381.05;" xml:space="preserve">
<style type="text/css">
	.st0{fill:#009FE3;}
	.st1{fill:#312783;}
	.st2{fill:#E7C25C;}
	.st3{fill:#1F2C37;}
	.st4{clip-path:url(#SVGID_2_);fill:#998EC4;}
	.st5{clip-path:url(#SVGID_2_);fill:#83CDDC;}
	.st6{clip-path:url(#SVGID_2_);fill:#A9CD77;}
	.st7{clip-path:url(#SVGID_2_);fill:#F28D5D;}
	.st8{clip-path:url(#SVGID_2_);fill:#EC6189;}
</style>
<g id="Capa_1">
	<g>
		<path class="st0" d="M91.96,373.55c-46.57,0-84.46-37.89-84.46-84.46V91.96C7.5,45.39,45.39,7.5,91.96,7.5h197.13
			c46.57,0,84.46,37.89,84.46,84.46v197.13c0,46.57-37.89,84.46-84.46,84.46H91.96z"/>
		<path class="st1" d="M289.09,15c42.44,0,76.96,34.52,76.96,76.96v197.13c0,42.44-34.52,76.96-76.96,76.96H91.96
			c-42.44,0-76.96-34.52-76.96-76.96V91.96C15,49.52,49.52,15,91.96,15H289.09 M289.09,0H91.96C41.17,0,0,41.17,0,91.96v197.13
			c0,50.79,41.17,91.96,91.96,91.96h197.13c50.79,0,91.96-41.17,91.96-91.96V91.96C381.05,41.17,339.88,0,289.09,0L289.09,0z"/>
	</g>
	<g>
		<path class="st2" d="M381.06,91.96V289.1c0,50.78-41.17,91.96-91.96,91.96H101.57c12.66-15.32,29.86-31.7,52.58-49.18
			c131-100.77,56.54-253.78,4.3-331.88H289.1C339.89,0,381.06,41.17,381.06,91.96z"/>
	</g>
</g>
<g id="Capa_5">
</g>
<g id="Capa_4">
	<g>
		<g>
			<path class="st3" d="M251.65,310.24V190.4h-2.02l-23.89,119.84h-70.85L131.4,190.4h-2.02v119.84H53.67l9.72-251.42h107.69
				l19.03,113.77h3.64l18.62-113.77h106.48l9.31,251.42H251.65z"/>
		</g>
	</g>
</g>
<g id="Capa_2">
	<g>
		<defs>
			<path id="SVGID_1_" d="M251.65,310.24V190.4h-2.02l-23.89,119.84h-70.85L131.4,190.4h-2.02v119.84H53.67l9.72-251.42h107.69
				l19.03,113.77h3.64l18.62-113.77h106.48l9.31,251.42H251.65z"/>
		</defs>
		<clipPath id="SVGID_2_">
			<use xlink:href="#SVGID_1_"  style="overflow:visible;"/>
		</clipPath>
		<path class="st4" d="M262.93,109.17H52.65c-4.9,0-8.87-3.97-8.87-8.87v0c0-4.9,3.97-8.87,8.87-8.87h210.28
			c4.9,0,8.87,3.97,8.87,8.87v0C271.8,105.2,267.83,109.17,262.93,109.17z"/>
		<path class="st5" d="M455.31,138.75H245.03c-4.9,0-8.87-3.97-8.87-8.87v0c0-4.9,3.97-8.87,8.87-8.87h210.28
			c4.9,0,8.87,3.97,8.87,8.87v0C464.19,134.78,460.21,138.75,455.31,138.75z"/>
		<path class="st6" d="M195.2,205.07H-15.08c-4.9,0-8.87,3.97-8.87,8.87v0c0,4.9,3.97,8.87,8.87,8.87H195.2
			c4.9,0,8.87-3.97,8.87-8.87v0C204.07,209.04,200.1,205.07,195.2,205.07z"/>
		<path class="st7" d="M222.85,164.18H12.57c-4.9,0-8.87-3.97-8.87-8.87v0c0-4.9,3.97-8.87,8.87-8.87h210.28
			c4.9,0,8.87,3.97,8.87,8.87v0C231.72,160.21,227.75,164.18,222.85,164.18z"/>
		<path class="st5" d="M164,194.96H10.94c-1.23,0-2.22-0.99-2.22-2.22l0,0c0-1.23,0.99-2.22,2.22-2.22H164
			c1.23,0,2.22,0.99,2.22,2.22l0,0C166.21,193.97,165.22,194.96,164,194.96z"/>
		<path class="st8" d="M154.9,181.87H20.04c-2.49,0-4.51-2.02-4.51-4.51l0,0c0-2.49,2.02-4.51,4.51-4.51H154.9
			c2.49,0,4.51,2.02,4.51,4.51l0,0C159.41,179.85,157.39,181.87,154.9,181.87z"/>
		<path class="st4" d="M410.65,155.46H275.79c-2.49,0-4.51-2.02-4.51-4.51l0,0c0-2.49,2.02-4.51,4.51-4.51h134.86
			c2.49,0,4.51,2.02,4.51,4.51l0,0C415.16,153.44,413.15,155.46,410.65,155.46z"/>
		<path class="st7" d="M406.22,256.98H271.35c-2.49,0-4.51-2.02-4.51-4.51v0c0-2.49,2.02-4.51,4.51-4.51h134.86
			c2.49,0,4.51,2.02,4.51,4.51v0C410.73,254.96,408.71,256.98,406.22,256.98z"/>
		<path class="st8" d="M195.2,281.45H-15.08c-4.9,0-8.87-3.97-8.87-8.87l0,0c0-4.9,3.97-8.87,8.87-8.87H195.2
			c4.9,0,8.87,3.97,8.87,8.87l0,0C204.07,277.48,200.1,281.45,195.2,281.45z"/>
		<path class="st6" d="M130.72,84.63H-4.14c-2.49,0-4.51-2.02-4.51-4.51v0c0-2.49,2.02-4.51,4.51-4.51h134.86
			c2.49,0,4.51,2.02,4.51,4.51v0C135.23,82.61,133.22,84.63,130.72,84.63z"/>
	</g>
</g>
</svg>
